<svg width="66" height="129" viewBox="0 0 66 129" fill="none" xmlns="http://www.w3.org/2000/svg">
<path d="M27.411 0.765381V11.0428C11.9489 13.379 0.150696 25.551 0.150696 40.0297C0.150696 48.7512 4.6868 55.4802 10.7168 59.814C16.7413 64.1478 24.0034 66.5625 30.8185 69.0165C37.6336 71.4705 44.0016 73.9638 48.1996 76.9921C52.3868 80.0203 54.6712 83.0879 54.6712 89.11C54.6712 99.6917 44.8957 108.742 32.863 108.742C20.7649 108.742 11.0548 100.001 11.0548 89.11V84.202H0.150696V89.11C0.150696 103.662 11.9489 115.761 27.411 118.097V128.374H38.3151V118.097C53.8207 115.741 65.5753 103.471 65.5753 89.11C65.5753 80.3688 61.0392 73.6742 55.0093 69.3257C48.9847 64.9723 41.7226 62.4201 34.9075 59.9661C28.0925 57.5121 21.7245 55.1562 17.5264 52.1476C13.3338 49.1341 11.0548 46.0126 11.0548 40.0297C11.0548 29.2762 20.7867 20.3975 32.863 20.3975C44.9611 20.3975 54.6712 29.1387 54.6712 40.0297V44.9377H65.5753V40.0297C65.5753 25.4773 53.7771 13.379 38.3151 11.0428V0.765381H27.411Z" fill="#5B5B5B"/>
</svg>
