<svg width="136" height="122" viewBox="0 0 136 122" fill="none" xmlns="http://www.w3.org/2000/svg">
<path d="M123.441 11.2226C120.096 7.87808 116.125 5.22542 111.755 3.41621C107.385 1.60699 102.701 0.676693 97.9713 0.678469C93.2415 0.680245 88.5583 1.61406 84.1895 3.42656C79.8207 5.23905 75.8519 7.89469 72.5099 11.2417L68.1474 15.6573L63.8213 11.2513L63.7931 11.2231C60.4502 7.88021 56.4816 5.22845 52.1139 3.41926C47.7461 1.61007 43.0648 0.678895 38.3372 0.678895C33.6096 0.678895 28.9283 1.61007 24.5605 3.41926C20.1928 5.22845 16.2242 7.88021 12.8813 11.2231L10.9378 13.1666C4.18654 19.9179 0.393707 29.0746 0.393707 38.6224C0.393707 48.1702 4.18654 57.3269 10.9378 64.0782L62.2302 115.37L68.0226 121.439L68.1607 121.3L68.3106 121.45L73.7376 115.724L125.384 64.0774C132.125 57.3207 135.911 48.166 135.911 38.6215C135.911 29.0771 132.125 19.9224 125.384 13.1657L123.441 11.2226ZM119.019 57.7135L68.1607 108.573L17.3014 57.7135C12.2379 52.65 9.39333 45.7825 9.39333 38.6217C9.39333 31.4609 12.2379 24.5933 17.3014 19.5299L19.2451 17.5864C24.3061 12.5255 31.1695 9.68107 38.3268 9.67838C45.4841 9.67569 52.3496 12.5149 57.4144 17.5721L68.128 28.4809L78.8926 17.5864C81.3998 15.0792 84.3763 13.0904 87.6521 11.7335C90.9279 10.3766 94.4389 9.67824 97.9846 9.67824C101.53 9.67824 105.041 10.3766 108.317 11.7335C111.593 13.0904 114.569 15.0792 117.076 17.5864L119.02 19.5296C124.076 24.5972 126.915 31.4634 126.915 38.6218C126.915 45.7802 124.075 52.6462 119.019 57.7135Z" fill="#5B5B5B"/>
</svg>
