<svg width="99" height="25" viewBox="0 0 99 25" fill="none" xmlns="http://www.w3.org/2000/svg">
<path d="M2.31543 8.52551C2.31543 8.52551 6.0425 7.36303 8.67337 9.68799C8.67337 9.68799 9.11185 14.0473 10.8658 14.0473V12.0129C10.8658 12.0129 11.3042 13.1754 12.1812 13.1754C13.0582 13.1754 13.4966 12.0129 13.4966 12.0129V14.0473C15.2506 14.0473 15.689 9.68799 15.689 9.68799C18.3199 7.36303 22.047 8.52551 22.047 8.52551C20.2931 9.68799 20.0738 13.7567 20.0738 13.7567C16.566 13.7567 16.566 17.5347 16.566 17.5347C12.1812 16.3722 12.1812 20.7315 12.1812 20.7315C12.1812 20.7315 12.1812 16.3722 7.79641 17.5347C7.79641 17.5347 7.79641 13.7567 4.28858 13.7567C4.28858 13.7567 4.06934 9.68799 2.31543 8.52551Z" stroke="white" stroke-width="0.5"/>
<circle cx="12.5101" cy="12.5101" r="11.7601" stroke="white" stroke-width="0.5"/>
<path d="M36.456 12.668C37.056 12.78 37.512 13.016 37.824 13.376C38.144 13.736 38.304 14.204 38.304 14.78C38.304 15.492 38.044 16.04 37.524 16.424C37.004 16.808 36.232 17 35.208 17H31.464V8.6H34.968C35.88 8.6 36.588 8.788 37.092 9.164C37.604 9.532 37.86 10.06 37.86 10.748C37.86 11.228 37.732 11.632 37.476 11.96C37.228 12.288 36.888 12.524 36.456 12.668ZM32.076 9.128V12.476H34.944C35.68 12.476 36.244 12.336 36.636 12.056C37.036 11.768 37.236 11.348 37.236 10.796C37.236 10.252 37.036 9.84 36.636 9.56C36.244 9.272 35.68 9.128 34.944 9.128H32.076ZM35.208 16.472C36.024 16.472 36.64 16.332 37.056 16.052C37.48 15.764 37.692 15.324 37.692 14.732C37.692 14.14 37.48 13.704 37.056 13.424C36.64 13.144 36.024 13.004 35.208 13.004H32.076V16.472H35.208ZM42.5874 10.688C43.3634 10.688 43.9594 10.888 44.3754 11.288C44.7914 11.68 44.9994 12.26 44.9994 13.028V17H44.4234V15.884C44.2234 16.252 43.9314 16.54 43.5474 16.748C43.1634 16.948 42.7034 17.048 42.1674 17.048C41.4714 17.048 40.9194 16.884 40.5114 16.556C40.1114 16.228 39.9114 15.796 39.9114 15.26C39.9114 14.74 40.0954 14.32 40.4634 14C40.8394 13.672 41.4354 13.508 42.2514 13.508H44.3994V13.004C44.3994 12.42 44.2394 11.976 43.9194 11.672C43.6074 11.368 43.1474 11.216 42.5394 11.216C42.1234 11.216 41.7234 11.288 41.3394 11.432C40.9634 11.576 40.6434 11.768 40.3794 12.008L40.0794 11.576C40.3914 11.296 40.7674 11.08 41.2074 10.928C41.6474 10.768 42.1074 10.688 42.5874 10.688ZM42.2514 16.556C42.7714 16.556 43.2114 16.436 43.5714 16.196C43.9394 15.956 44.2154 15.608 44.3994 15.152V13.976H42.2634C41.6474 13.976 41.1994 14.088 40.9194 14.312C40.6474 14.536 40.5114 14.844 40.5114 15.236C40.5114 15.644 40.6634 15.968 40.9674 16.208C41.2714 16.44 41.6994 16.556 42.2514 16.556ZM50.7595 16.604C50.6075 16.748 50.4155 16.86 50.1835 16.94C49.9595 17.012 49.7235 17.048 49.4755 17.048C48.9315 17.048 48.5115 16.9 48.2155 16.604C47.9195 16.3 47.7715 15.88 47.7715 15.344V11.252H46.6195V10.736H47.7715V9.368H48.3715V10.736H50.3635V11.252H48.3715V15.284C48.3715 15.692 48.4675 16.004 48.6595 16.22C48.8595 16.428 49.1515 16.532 49.5355 16.532C49.9275 16.532 50.2515 16.416 50.5075 16.184L50.7595 16.604ZM55.0128 17.06C54.3968 17.06 53.8088 16.956 53.2488 16.748C52.6968 16.532 52.2648 16.256 51.9528 15.92L52.2288 15.464C52.5248 15.776 52.9208 16.032 53.4168 16.232C53.9208 16.424 54.4488 16.52 55.0008 16.52C55.8008 16.52 56.4048 16.368 56.8128 16.064C57.2208 15.76 57.4248 15.364 57.4248 14.876C57.4248 14.5 57.3168 14.2 57.1008 13.976C56.8848 13.752 56.6168 13.58 56.2968 13.46C55.9768 13.34 55.5448 13.216 55.0008 13.088C54.3848 12.936 53.8888 12.788 53.5128 12.644C53.1448 12.5 52.8288 12.28 52.5648 11.984C52.3088 11.68 52.1808 11.276 52.1808 10.772C52.1808 10.364 52.2888 9.992 52.5048 9.656C52.7208 9.312 53.0488 9.04 53.4888 8.84C53.9368 8.64 54.4928 8.54 55.1568 8.54C55.6208 8.54 56.0768 8.608 56.5248 8.744C56.9728 8.88 57.3608 9.064 57.6888 9.296L57.4608 9.788C57.1248 9.556 56.7528 9.38 56.3448 9.26C55.9448 9.14 55.5488 9.08 55.1568 9.08C54.3808 9.08 53.7928 9.236 53.3928 9.548C52.9928 9.86 52.7928 10.264 52.7928 10.76C52.7928 11.136 52.9008 11.436 53.1168 11.66C53.3328 11.884 53.6008 12.056 53.9208 12.176C54.2408 12.296 54.6768 12.424 55.2288 12.56C55.8448 12.712 56.3368 12.86 56.7048 13.004C57.0728 13.148 57.3848 13.368 57.6408 13.664C57.9048 13.952 58.0368 14.344 58.0368 14.84C58.0368 15.248 57.9248 15.62 57.7008 15.956C57.4848 16.292 57.1488 16.56 56.6928 16.76C56.2368 16.96 55.6768 17.06 55.0128 17.06ZM63.1653 10.688C63.9493 10.688 64.5693 10.916 65.0253 11.372C65.4813 11.828 65.7093 12.484 65.7093 13.34V17H65.1093V13.388C65.1093 12.684 64.9293 12.148 64.5693 11.78C64.2173 11.412 63.7213 11.228 63.0813 11.228C62.3453 11.228 61.7653 11.448 61.3413 11.888C60.9173 12.328 60.7053 12.92 60.7053 13.664V17H60.1053V8.096H60.7053V12.044C60.9213 11.612 61.2413 11.28 61.6653 11.048C62.0893 10.808 62.5893 10.688 63.1653 10.688ZM70.4715 10.688C71.2475 10.688 71.8435 10.888 72.2595 11.288C72.6755 11.68 72.8835 12.26 72.8835 13.028V17H72.3075V15.884C72.1075 16.252 71.8155 16.54 71.4315 16.748C71.0475 16.948 70.5875 17.048 70.0515 17.048C69.3555 17.048 68.8035 16.884 68.3955 16.556C67.9955 16.228 67.7955 15.796 67.7955 15.26C67.7955 14.74 67.9795 14.32 68.3475 14C68.7235 13.672 69.3195 13.508 70.1355 13.508H72.2835V13.004C72.2835 12.42 72.1235 11.976 71.8035 11.672C71.4915 11.368 71.0315 11.216 70.4235 11.216C70.0075 11.216 69.6075 11.288 69.2235 11.432C68.8475 11.576 68.5275 11.768 68.2635 12.008L67.9635 11.576C68.2755 11.296 68.6515 11.08 69.0915 10.928C69.5315 10.768 69.9915 10.688 70.4715 10.688ZM70.1355 16.556C70.6555 16.556 71.0955 16.436 71.4555 16.196C71.8235 15.956 72.0995 15.608 72.2835 15.152V13.976H70.1475C69.5315 13.976 69.0835 14.088 68.8035 14.312C68.5315 14.536 68.3955 14.844 68.3955 15.236C68.3955 15.644 68.5475 15.968 68.8515 16.208C69.1555 16.44 69.5835 16.556 70.1355 16.556ZM76.1116 12.104C76.3036 11.648 76.6036 11.3 77.0116 11.06C77.4196 10.812 77.9156 10.688 78.4996 10.688V11.276L78.3556 11.264C77.6596 11.264 77.1156 11.484 76.7236 11.924C76.3316 12.356 76.1356 12.96 76.1356 13.736V17H75.5356V10.736H76.1116V12.104ZM80.3328 10.736H80.9328V17H80.3328V10.736ZM80.6328 9.212C80.4968 9.212 80.3808 9.168 80.2848 9.08C80.1888 8.984 80.1408 8.868 80.1408 8.732C80.1408 8.596 80.1888 8.48 80.2848 8.384C80.3808 8.288 80.4968 8.24 80.6328 8.24C80.7688 8.24 80.8848 8.288 80.9808 8.384C81.0768 8.472 81.1248 8.584 81.1248 8.72C81.1248 8.856 81.0768 8.972 80.9808 9.068C80.8848 9.164 80.7688 9.212 80.6328 9.212ZM86.7017 10.688C87.4857 10.688 88.1057 10.916 88.5617 11.372C89.0177 11.828 89.2457 12.484 89.2457 13.34V17H88.6457V13.388C88.6457 12.684 88.4657 12.148 88.1057 11.78C87.7537 11.412 87.2577 11.228 86.6177 11.228C85.8817 11.228 85.3017 11.448 84.8777 11.888C84.4537 12.328 84.2417 12.92 84.2417 13.664V17H83.6417V10.736H84.2177V12.092C84.4337 11.652 84.7537 11.308 85.1777 11.06C85.6097 10.812 86.1177 10.688 86.7017 10.688ZM97.5476 10.736V16.328C97.5476 17.368 97.2956 18.136 96.7916 18.632C96.2876 19.128 95.5276 19.376 94.5116 19.376C93.9356 19.376 93.3916 19.288 92.8796 19.112C92.3676 18.936 91.9556 18.692 91.6436 18.38L91.9676 17.924C92.2796 18.212 92.6556 18.436 93.0956 18.596C93.5356 18.756 94.0036 18.836 94.4996 18.836C95.3316 18.836 95.9476 18.636 96.3476 18.236C96.7476 17.844 96.9476 17.232 96.9476 16.4V15.344C96.6916 15.8 96.3356 16.152 95.8796 16.4C95.4236 16.648 94.9116 16.772 94.3436 16.772C93.7596 16.772 93.2276 16.644 92.7476 16.388C92.2756 16.124 91.9036 15.76 91.6316 15.296C91.3596 14.832 91.2236 14.308 91.2236 13.724C91.2236 13.14 91.3596 12.616 91.6316 12.152C91.9036 11.688 92.2756 11.328 92.7476 11.072C93.2276 10.816 93.7596 10.688 94.3436 10.688C94.9196 10.688 95.4396 10.816 95.9036 11.072C96.3676 11.328 96.7236 11.688 96.9716 12.152V10.736H97.5476ZM94.3916 16.232C94.8796 16.232 95.3196 16.128 95.7116 15.92C96.1036 15.704 96.4076 15.408 96.6236 15.032C96.8476 14.648 96.9596 14.212 96.9596 13.724C96.9596 13.236 96.8476 12.804 96.6236 12.428C96.4076 12.052 96.1036 11.76 95.7116 11.552C95.3196 11.336 94.8796 11.228 94.3916 11.228C93.9036 11.228 93.4636 11.336 93.0716 11.552C92.6876 11.76 92.3836 12.052 92.1596 12.428C91.9436 12.804 91.8356 13.236 91.8356 13.724C91.8356 14.212 91.9436 14.648 92.1596 15.032C92.3836 15.408 92.6876 15.704 93.0716 15.92C93.4636 16.128 93.9036 16.232 94.3916 16.232Z" fill="white"/>
</svg>
