<svg width="106" height="26" viewBox="0 0 106 26" fill="none" xmlns="http://www.w3.org/2000/svg">
<path d="M2.31543 8.52551C2.31543 8.52551 6.0425 7.36303 8.67337 9.68799C8.67337 9.68799 9.11185 14.0473 10.8658 14.0473V12.0129C10.8658 12.0129 11.3042 13.1754 12.1812 13.1754C13.0582 13.1754 13.4966 12.0129 13.4966 12.0129V14.0473C15.2506 14.0473 15.689 9.68799 15.689 9.68799C18.3199 7.36303 22.047 8.52551 22.047 8.52551C20.2931 9.68799 20.0738 13.7567 20.0738 13.7567C16.566 13.7567 16.566 17.5347 16.566 17.5347C12.1812 16.3722 12.1812 20.7315 12.1812 20.7315C12.1812 20.7315 12.1812 16.3722 7.79641 17.5347C7.79641 17.5347 7.79641 13.7567 4.28858 13.7567C4.28858 13.7567 4.06934 9.68799 2.31543 8.52551Z" stroke="#C7905E"/>
<circle cx="12.5101" cy="12.5101" r="12.0101" stroke="#C7905E"/>
<path d="M36.66 12.668C37.212 12.788 37.636 13.028 37.932 13.388C38.236 13.74 38.388 14.196 38.388 14.756C38.388 15.476 38.12 16.032 37.584 16.424C37.056 16.808 36.272 17 35.232 17H31.368V8.6H34.992C35.928 8.6 36.652 8.788 37.164 9.164C37.684 9.54 37.944 10.072 37.944 10.76C37.944 11.224 37.828 11.62 37.596 11.948C37.372 12.268 37.06 12.508 36.66 12.668ZM32.256 9.332V12.38H34.932C35.612 12.38 36.136 12.252 36.504 11.996C36.872 11.732 37.056 11.352 37.056 10.856C37.056 10.36 36.872 9.984 36.504 9.728C36.136 9.464 35.612 9.332 34.932 9.332H32.256ZM35.22 16.268C35.972 16.268 36.54 16.14 36.924 15.884C37.308 15.628 37.5 15.228 37.5 14.684C37.5 13.636 36.74 13.112 35.22 13.112H32.256V16.268H35.22ZM42.6229 10.64C43.4469 10.64 44.0789 10.848 44.5189 11.264C44.9589 11.672 45.1789 12.28 45.1789 13.088V17H44.3629V16.016C44.1709 16.344 43.8869 16.6 43.5109 16.784C43.1429 16.968 42.7029 17.06 42.1909 17.06C41.4869 17.06 40.9269 16.892 40.5109 16.556C40.0949 16.22 39.8869 15.776 39.8869 15.224C39.8869 14.688 40.0789 14.256 40.4629 13.928C40.8549 13.6 41.4749 13.436 42.3229 13.436H44.3269V13.052C44.3269 12.508 44.1749 12.096 43.8709 11.816C43.5669 11.528 43.1229 11.384 42.5389 11.384C42.1389 11.384 41.7549 11.452 41.3869 11.588C41.0189 11.716 40.7029 11.896 40.4389 12.128L40.0549 11.492C40.3749 11.22 40.7589 11.012 41.2069 10.868C41.6549 10.716 42.1269 10.64 42.6229 10.64ZM42.3229 16.388C42.8029 16.388 43.2149 16.28 43.5589 16.064C43.9029 15.84 44.1589 15.52 44.3269 15.104V14.072H42.3469C41.2669 14.072 40.7269 14.448 40.7269 15.2C40.7269 15.568 40.8669 15.86 41.1469 16.076C41.4269 16.284 41.8189 16.388 42.3229 16.388ZM50.997 16.616C50.837 16.76 50.637 16.872 50.397 16.952C50.165 17.024 49.921 17.06 49.665 17.06C49.073 17.06 48.617 16.9 48.297 16.58C47.977 16.26 47.817 15.808 47.817 15.224V11.408H46.689V10.688H47.817V9.308H48.669V10.688H50.589V11.408H48.669V15.176C48.669 15.552 48.761 15.84 48.945 16.04C49.137 16.232 49.409 16.328 49.761 16.328C49.937 16.328 50.105 16.3 50.265 16.244C50.433 16.188 50.577 16.108 50.697 16.004L50.997 16.616ZM55.224 17.072C54.6 17.072 54 16.972 53.424 16.772C52.856 16.572 52.416 16.308 52.104 15.98L52.452 15.296C52.756 15.6 53.16 15.848 53.664 16.04C54.168 16.224 54.688 16.316 55.224 16.316C55.976 16.316 56.54 16.18 56.916 15.908C57.292 15.628 57.48 15.268 57.48 14.828C57.48 14.492 57.376 14.224 57.168 14.024C56.968 13.824 56.72 13.672 56.424 13.568C56.128 13.456 55.716 13.336 55.188 13.208C54.556 13.048 54.052 12.896 53.676 12.752C53.3 12.6 52.976 12.372 52.704 12.068C52.44 11.764 52.308 11.352 52.308 10.832C52.308 10.408 52.42 10.024 52.644 9.68C52.868 9.328 53.212 9.048 53.676 8.84C54.14 8.632 54.716 8.528 55.404 8.528C55.884 8.528 56.352 8.596 56.808 8.732C57.272 8.86 57.672 9.04 58.008 9.272L57.708 9.98C57.356 9.748 56.98 9.576 56.58 9.464C56.18 9.344 55.788 9.284 55.404 9.284C54.668 9.284 54.112 9.428 53.736 9.716C53.368 9.996 53.184 10.36 53.184 10.808C53.184 11.144 53.284 11.416 53.484 11.624C53.692 11.824 53.948 11.98 54.252 12.092C54.564 12.196 54.98 12.312 55.5 12.44C56.116 12.592 56.612 12.744 56.988 12.896C57.372 13.04 57.696 13.264 57.96 13.568C58.224 13.864 58.356 14.268 58.356 14.78C58.356 15.204 58.24 15.592 58.008 15.944C57.784 16.288 57.436 16.564 56.964 16.772C56.492 16.972 55.912 17.072 55.224 17.072ZM63.5068 10.64C64.2988 10.64 64.9268 10.872 65.3908 11.336C65.8628 11.792 66.0988 12.46 66.0988 13.34V17H65.2468V13.424C65.2468 12.768 65.0828 12.268 64.7548 11.924C64.4268 11.58 63.9588 11.408 63.3508 11.408C62.6708 11.408 62.1308 11.612 61.7308 12.02C61.3388 12.42 61.1428 12.976 61.1428 13.688V17H60.2908V8.096H61.1428V11.792C61.3748 11.424 61.6948 11.14 62.1028 10.94C62.5108 10.74 62.9788 10.64 63.5068 10.64ZM70.7999 10.64C71.6239 10.64 72.2559 10.848 72.6959 11.264C73.1359 11.672 73.3559 12.28 73.3559 13.088V17H72.5399V16.016C72.3479 16.344 72.0639 16.6 71.6879 16.784C71.3199 16.968 70.8799 17.06 70.3679 17.06C69.6639 17.06 69.1039 16.892 68.6879 16.556C68.2719 16.22 68.0639 15.776 68.0639 15.224C68.0639 14.688 68.2559 14.256 68.6399 13.928C69.0319 13.6 69.6519 13.436 70.4999 13.436H72.5039V13.052C72.5039 12.508 72.3519 12.096 72.0479 11.816C71.7439 11.528 71.2999 11.384 70.7159 11.384C70.3159 11.384 69.9319 11.452 69.5639 11.588C69.1959 11.716 68.8799 11.896 68.6159 12.128L68.2319 11.492C68.5519 11.22 68.9359 11.012 69.3839 10.868C69.8319 10.716 70.3039 10.64 70.7999 10.64ZM70.4999 16.388C70.9799 16.388 71.3919 16.28 71.7359 16.064C72.0799 15.84 72.3359 15.52 72.5039 15.104V14.072H70.5239C69.4439 14.072 68.9039 14.448 68.9039 15.2C68.9039 15.568 69.0439 15.86 69.3239 16.076C69.6039 16.284 69.9959 16.388 70.4999 16.388ZM76.666 11.924C76.866 11.5 77.162 11.18 77.554 10.964C77.954 10.748 78.446 10.64 79.03 10.64V11.468L78.826 11.456C78.162 11.456 77.642 11.66 77.266 12.068C76.89 12.476 76.702 13.048 76.702 13.784V17H75.85V10.688H76.666V11.924ZM80.7527 10.688H81.6047V17H80.7527V10.688ZM81.1847 9.308C81.0087 9.308 80.8607 9.248 80.7407 9.128C80.6207 9.008 80.5607 8.864 80.5607 8.696C80.5607 8.536 80.6207 8.396 80.7407 8.276C80.8607 8.156 81.0087 8.096 81.1847 8.096C81.3607 8.096 81.5087 8.156 81.6287 8.276C81.7487 8.388 81.8087 8.524 81.8087 8.684C81.8087 8.86 81.7487 9.008 81.6287 9.128C81.5087 9.248 81.3607 9.308 81.1847 9.308ZM87.3713 10.64C88.1633 10.64 88.7913 10.872 89.2553 11.336C89.7273 11.792 89.9633 12.46 89.9633 13.34V17H89.1113V13.424C89.1113 12.768 88.9473 12.268 88.6193 11.924C88.2913 11.58 87.8233 11.408 87.2153 11.408C86.5353 11.408 85.9953 11.612 85.5953 12.02C85.2033 12.42 85.0073 12.976 85.0073 13.688V17H84.1553V10.688H84.9713V11.852C85.2033 11.468 85.5233 11.172 85.9313 10.964C86.3473 10.748 86.8273 10.64 87.3713 10.64ZM98.3239 10.688V16.232C98.3239 17.304 98.0599 18.096 97.5319 18.608C97.0119 19.128 96.2239 19.388 95.1679 19.388C94.5839 19.388 94.0279 19.3 93.4999 19.124C92.9799 18.956 92.5559 18.72 92.2279 18.416L92.6599 17.768C92.9639 18.04 93.3319 18.252 93.7639 18.404C94.2039 18.556 94.6639 18.632 95.1439 18.632C95.9439 18.632 96.5319 18.444 96.9079 18.068C97.2839 17.7 97.4719 17.124 97.4719 16.34V15.536C97.2079 15.936 96.8599 16.24 96.4279 16.448C96.0039 16.656 95.5319 16.76 95.0119 16.76C94.4199 16.76 93.8799 16.632 93.3919 16.376C92.9119 16.112 92.5319 15.748 92.2519 15.284C91.9799 14.812 91.8439 14.28 91.8439 13.688C91.8439 13.096 91.9799 12.568 92.2519 12.104C92.5319 11.64 92.9119 11.28 93.3919 11.024C93.8719 10.768 94.4119 10.64 95.0119 10.64C95.5479 10.64 96.0319 10.748 96.4639 10.964C96.8959 11.18 97.2439 11.492 97.5079 11.9V10.688H98.3239ZM95.0959 16.004C95.5519 16.004 95.9639 15.908 96.3319 15.716C96.6999 15.516 96.9839 15.24 97.1839 14.888C97.3919 14.536 97.4959 14.136 97.4959 13.688C97.4959 13.24 97.3919 12.844 97.1839 12.5C96.9839 12.148 96.6999 11.876 96.3319 11.684C95.9719 11.484 95.5599 11.384 95.0959 11.384C94.6399 11.384 94.2279 11.48 93.8599 11.672C93.4999 11.864 93.2159 12.136 93.0079 12.488C92.8079 12.84 92.7079 13.24 92.7079 13.688C92.7079 14.136 92.8079 14.536 93.0079 14.888C93.2159 15.24 93.4999 15.516 93.8599 15.716C94.2279 15.908 94.6399 16.004 95.0959 16.004Z" fill="#C7905E"/>
</svg>
