<svg width="136" height="135" viewBox="0 0 136 135" fill="none" xmlns="http://www.w3.org/2000/svg">
<path d="M93.1551 86.7114C87.4017 91.4544 80.1776 94.0482 72.7213 94.0482C65.2649 94.0482 58.0408 91.4544 52.2875 86.7114" stroke="#5B5B5B" stroke-width="8" stroke-linecap="round" stroke-linejoin="round"/>
<path d="M106.115 98.2913C104.62 98.2917 103.151 98.6897 101.861 99.4445C100.57 100.199 99.5031 101.284 98.7696 102.587C98.0361 103.89 97.6623 105.365 97.6865 106.86C97.7107 108.355 98.1321 109.816 98.9074 111.095L99.3904 111.809L114.361 131L129.42 111.69C130.112 110.745 130.6 109.665 130.851 108.52C131.103 107.375 131.113 106.19 130.88 105.041C130.648 103.892 130.178 102.804 129.502 101.847C128.825 100.889 127.956 100.084 126.95 99.4817C125.944 98.8793 124.824 98.4935 123.661 98.3487C122.497 98.2039 121.317 98.3034 120.194 98.6409C119.071 98.9783 118.032 99.5463 117.141 100.308C116.25 101.071 115.528 102.01 115.021 103.067C114.962 103.191 114.868 103.296 114.752 103.37C114.635 103.443 114.5 103.482 114.362 103.482C114.225 103.482 114.09 103.443 113.973 103.37C113.856 103.296 113.763 103.191 113.703 103.067C113.022 101.633 111.946 100.423 110.603 99.5776C109.259 98.732 107.703 98.2859 106.115 98.2913V98.2913Z" stroke="#5B5B5B" stroke-width="8" stroke-linecap="round" stroke-linejoin="round"/>
<path d="M12.4296 60.8169C10.9343 60.8173 9.46601 61.2153 8.17525 61.9702C6.88449 62.725 5.81767 63.8095 5.08417 65.1125C4.35068 66.4155 3.97688 67.8902 4.00111 69.3852C4.02533 70.8803 4.44671 72.3421 5.22203 73.6206L5.70503 74.3347L20.676 93.5256L35.7343 74.216C36.4269 73.2702 36.9145 72.1903 37.166 71.0453C37.4174 69.9003 37.4273 68.7155 37.1949 67.5665C36.9624 66.4174 36.4929 65.3296 35.8161 64.3723C35.1394 63.4151 34.2704 62.6096 33.2647 62.0073C32.259 61.405 31.1387 61.0191 29.9754 60.8743C28.8121 60.7296 27.6314 60.8291 26.5087 61.1665C25.3861 61.504 24.3462 62.0719 23.4555 62.8341C22.5648 63.5962 21.8429 64.5358 21.3359 65.5928C21.2764 65.717 21.1829 65.8219 21.0663 65.8953C20.9497 65.9687 20.8148 66.0076 20.677 66.0076C20.5392 66.0076 20.4043 65.9687 20.2877 65.8953C20.1711 65.8219 20.0776 65.717 20.0181 65.5928C19.3362 64.1591 18.2608 62.9489 16.9171 62.1033C15.5735 61.2576 14.0171 60.8115 12.4296 60.8169V60.8169Z" stroke="#5B5B5B" stroke-width="8" stroke-linecap="round" stroke-linejoin="round"/>
<path d="M89.4598 4.60576C87.9645 4.60614 86.4962 5.00415 85.2055 5.75898C83.9147 6.51382 82.8479 7.59833 82.1144 8.90134C81.3809 10.2043 81.0071 11.679 81.0313 13.1741C81.0555 14.6691 81.4769 16.1309 82.2522 17.4094L82.7352 18.1235L97.7062 37.3145L112.765 18.0049C113.457 17.059 113.945 15.9791 114.196 14.8341C114.448 13.6891 114.457 12.5043 114.225 11.3553C113.993 10.2063 113.523 9.11838 112.846 8.16116C112.17 7.20394 111.301 6.39843 110.295 5.79611C109.289 5.19379 108.169 4.80792 107.006 4.66315C105.842 4.51837 104.662 4.61789 103.539 4.95534C102.416 5.29278 101.376 5.86073 100.486 6.62289C99.595 7.38505 98.8731 8.32465 98.3661 9.38164C98.3066 9.50586 98.2131 9.61072 98.0965 9.68411C97.9799 9.75751 97.845 9.79645 97.7072 9.79645C97.5694 9.79645 97.4345 9.75751 97.3179 9.68411C97.2013 9.61072 97.1079 9.50586 97.0483 9.38164C96.3664 7.94794 95.291 6.73769 93.9473 5.89207C92.6037 5.04645 91.0473 4.60034 89.4598 4.60576V4.60576Z" stroke="#5B5B5B" stroke-width="8" stroke-linecap="round" stroke-linejoin="round"/>
<path d="M86.8949 114.134C82.3042 115.552 77.5261 116.27 72.7214 116.265C56.1911 116.265 41.6199 107.892 33.0154 95.155" stroke="#5B5B5B" stroke-width="8" stroke-linecap="round" stroke-linejoin="round"/>
<path d="M109.671 37.925C116.754 46.4929 120.622 57.2663 120.605 68.3832C120.605 75.8843 118.879 82.9836 115.804 89.3063" stroke="#5B5B5B" stroke-width="8" stroke-linecap="round" stroke-linejoin="round"/>
<path d="M28.4435 50.1187C35.6239 32.7348 52.7434 20.4995 72.7213 20.4995" stroke="#5B5B5B" stroke-width="8" stroke-linecap="round" stroke-linejoin="round"/>
<path d="M63.7566 60.8968C62.9838 59.1572 61.723 57.6792 60.127 56.6418C58.531 55.6044 56.6684 55.0522 54.7649 55.0522C52.8614 55.0522 50.9987 55.6044 49.4027 56.6418C47.8068 57.6792 46.546 59.1572 45.7732 60.8968" stroke="#5B5B5B" stroke-width="8" stroke-miterlimit="10" stroke-linecap="round"/>
<path d="M99.6693 60.8968C98.8965 59.1572 97.6357 57.6792 96.0397 56.6418C94.4437 55.6044 92.5811 55.0522 90.6776 55.0522C88.7741 55.0522 86.9115 55.6044 85.3155 56.6418C83.7195 57.6792 82.4587 59.1572 81.6859 60.8968" stroke="#5B5B5B" stroke-width="8" stroke-miterlimit="10" stroke-linecap="round"/>
</svg>
