<svg width="127" height="122" viewBox="0 0 127 122" fill="none" xmlns="http://www.w3.org/2000/svg">
<path d="M97.2453 122C95.5516 121.998 93.8968 121.487 92.493 120.532L63.9024 101.227C63.7616 101.129 63.5945 101.077 63.4233 101.077C63.2522 101.077 63.0851 101.129 62.9443 101.227L34.3537 120.532C32.918 121.498 31.2247 122.001 29.4986 121.974C27.7725 121.948 26.0952 121.393 24.6896 120.383C23.284 119.373 22.2165 117.957 21.6289 116.321C21.0413 114.686 20.9614 112.909 21.3998 111.227L30.7895 77.868C30.8339 77.7002 30.8285 77.5231 30.774 77.3584C30.7195 77.1937 30.6183 77.0487 30.4829 76.9413L3.4253 55.5126C2.0009 54.4436 0.944313 52.9523 0.403686 51.2477C-0.136941 49.5432 -0.134495 47.711 0.410681 46.0079C0.955857 44.3049 2.01642 42.8164 3.44367 41.7513C4.87092 40.6861 6.59328 40.0977 8.36925 40.0685L42.8619 38.7557C43.0315 38.7439 43.1941 38.683 43.3301 38.5802C43.4661 38.4775 43.5697 38.3373 43.6284 38.1766L55.5092 5.62804C56.1081 3.97799 57.1958 2.55318 58.625 1.54653C60.0543 0.539874 61.7561 0 63.5 0C65.2439 0 66.9457 0.539874 68.375 1.54653C69.8042 2.55318 70.8919 3.97799 71.4908 5.62804L83.3716 38.1766C83.4303 38.3373 83.5339 38.4775 83.6699 38.5802C83.8059 38.683 83.9685 38.7439 84.1381 38.7557L118.631 40.0685C120.407 40.0977 122.129 40.6861 123.556 41.7513C124.984 42.8164 126.044 44.3049 126.589 46.0079C127.134 47.711 127.137 49.5432 126.596 51.2477C126.056 52.9523 124.999 54.4436 123.575 55.5126L96.5171 76.9413C96.3776 77.0452 96.2733 77.19 96.2184 77.3558C96.1635 77.5217 96.1608 77.7005 96.2105 77.868L105.6 111.227C105.93 112.507 105.962 113.846 105.696 115.14C105.429 116.434 104.87 117.649 104.062 118.691C103.254 119.733 102.219 120.573 101.037 121.147C99.8548 121.721 98.5574 122.012 97.2453 122ZM63.4425 93.3507C65.1397 93.403 66.782 93.968 68.1565 94.9724L96.7471 114.278C96.892 114.388 97.0686 114.449 97.2506 114.451C97.4326 114.452 97.6101 114.394 97.7568 114.286C97.9034 114.177 98.0112 114.024 98.0641 113.848C98.1169 113.673 98.1121 113.485 98.0501 113.312L88.6605 79.9529C88.1984 78.3165 88.2325 76.5783 88.7583 74.9615C89.2842 73.3447 90.2778 71.9232 91.6115 70.8795L118.669 49.4508C118.817 49.3463 118.927 49.197 118.984 49.0246C119.041 48.8522 119.042 48.6659 118.986 48.4931C118.931 48.3203 118.821 48.1701 118.674 48.0645C118.528 47.9588 118.351 47.9034 118.171 47.9064L83.6782 46.5936C81.9893 46.5273 80.3582 45.9557 78.9931 44.9517C77.6279 43.9477 76.5905 42.5569 76.0132 40.9565L64.1324 8.40799C64.0788 8.23517 63.9718 8.08411 63.827 7.97685C63.6823 7.86959 63.5073 7.81174 63.3275 7.81174C63.1478 7.81174 62.9728 7.86959 62.828 7.97685C62.6833 8.08411 62.5763 8.23517 62.5227 8.40799L50.7569 40.9179C50.1795 42.5183 49.1421 43.9091 47.777 44.9131C46.4118 45.9171 44.7808 46.4887 43.0918 46.555L8.5992 47.8678C8.41885 47.8648 8.24232 47.9202 8.09554 48.0258C7.94877 48.1315 7.83948 48.2817 7.78373 48.4545C7.72798 48.6273 7.72871 48.8136 7.78581 48.986C7.84291 49.1583 7.95337 49.3077 8.10097 49.4122L35.1969 70.8795C36.5265 71.9265 37.5171 73.3483 38.0425 74.9639C38.568 76.5796 38.6047 78.3162 38.1479 79.9529L28.7966 113.312C28.7408 113.479 28.7405 113.66 28.7958 113.827C28.8511 113.995 28.959 114.139 29.1032 114.239C29.242 114.359 29.4187 114.424 29.6014 114.424C29.7841 114.424 29.9608 114.359 30.0996 114.239L58.6902 94.9338C60.0875 94 61.7275 93.503 63.4042 93.5052L63.4425 93.3507Z" fill="#5B5B5B"/>
</svg>
