<svg width="130" height="129" viewBox="0 0 130 129" fill="none" xmlns="http://www.w3.org/2000/svg">
<path d="M64.9636 34.0057C52.7042 33.8379 40.9155 41.8552 36.4033 53.2726C31.7808 64.2578 34.3362 77.7792 42.6484 86.3017C50.7302 95.0327 64.0465 98.2502 75.2005 94.1582C86.889 90.1621 95.4759 78.5596 95.7853 66.1531C96.408 54.1 89.1896 42.1824 78.3214 37.0637C74.1742 35.0486 69.5707 33.9996 64.9636 34.0057ZM64.9636 39.6464C76.1687 39.4334 86.7868 47.6873 89.3951 58.6217C92.2546 69.1287 87.4368 81.1092 78.0577 86.6144C68.4812 92.6459 54.9792 91.0386 47.1153 82.8699C38.8166 74.8359 37.3388 60.9357 43.7055 51.3009C48.2147 44.1128 56.4965 39.5636 64.9636 39.6464ZM72.9325 46.8394L64.5081 62.1769C61.9062 62.4546 61.2881 66.4158 63.6888 67.4724C65.2745 68.577 66.5166 66.7397 67.9601 66.803H80.8384V63.2776H67.9148L76.0092 48.5411L72.9325 46.8394ZM65.4886 0.000140939L64.592 0.00162187H64.5684L64.5447 0.00204469L63.6481 0.0157233L63.6244 0.0161466L63.6008 0.0168513L62.7045 0.0425872L62.6809 0.0432919L62.6573 0.044279L61.7614 0.0821421L61.7378 0.0831996L61.7141 0.0844686L60.819 0.134459L60.7952 0.135869L60.7716 0.137491L59.8772 0.199538L59.8535 0.201231L59.8299 0.203134L58.9365 0.277379L58.9129 0.279283L58.8893 0.281539L57.9969 0.367841L57.9733 0.370168L57.9497 0.372706L57.0586 0.471135L57.035 0.473744L57.0114 0.476635L56.1219 0.587122L56.0983 0.589941L56.0747 0.593326L55.1869 0.715728L55.1633 0.719042L55.1397 0.722568L54.2538 0.857167L54.2302 0.860693L54.2066 0.864571L53.3227 1.01123L53.2991 1.01511L53.2755 1.01934L52.3939 1.17798L52.3702 1.18228L52.3467 1.18686L51.4676 1.35749L51.444 1.36215L51.4203 1.36694L50.5437 1.5497L50.52 1.55463L50.4966 1.55992L49.6227 1.7546L49.5991 1.75988L49.5754 1.76552L48.7046 1.97218L48.6809 1.97782L48.6574 1.98375L48.1875 2.10234L47.57 2.32106L47.0038 2.65111L46.5084 3.08078L46.1011 3.59542L45.7961 4.17683L45.6038 4.80492L45.5311 5.45796L45.5803 6.11334L45.75 6.74791L46.034 7.34004L46.4226 7.86899L46.9022 8.31629L47.4562 8.66651L48.0655 8.90751L48.7087 9.03075L49.3635 9.03224L49.8994 8.94057L50.3446 8.82833L51.1664 8.6333L51.9934 8.44878L52.8349 8.27357L53.6585 8.11372L54.4945 7.96333L55.3331 7.82422L56.1643 7.69801L57.0075 7.5816L57.8426 7.47795L58.6894 7.38439L59.5373 7.30232L60.3868 7.23195L61.2377 7.17272L62.0794 7.12576L62.9317 7.08981L63.7842 7.06534L64.6267 7.05251L65.4797 7.05103L66.3322 7.06104L67.1745 7.08254L68.0155 7.11519L68.8761 7.16031L69.715 7.2158L70.5633 7.28356L71.4099 7.36274L72.2549 7.4537L73.0884 7.55474L73.9268 7.66811L74.7665 7.79341L75.6103 7.93153L76.4436 8.07967L77.263 8.23726L77.4755 8.28097L78.1264 8.35303L78.7793 8.30269L79.4115 8.13149L80.001 7.84558L80.5274 7.45476L80.9724 6.97276L81.3207 6.41617L81.56 5.80444L81.6818 5.15887L81.6825 4.50173L81.5613 3.85595L81.323 3.24394L80.9754 2.68707L80.531 2.20437L80.005 1.81305L79.4157 1.52629L78.8934 1.37526L78.6618 1.32746L78.6378 1.32252L78.6138 1.3178L77.7353 1.149L77.7114 1.14442L77.6874 1.14019L76.8063 0.983447L76.7824 0.979217L76.7586 0.975339L75.8752 0.830797L75.8513 0.82699L75.8274 0.823465L74.942 0.691191L74.9182 0.687666L74.8941 0.684352L74.0068 0.564417L73.9831 0.561104L73.959 0.558213L73.0701 0.450336L73.0462 0.447515L73.0223 0.444977L72.1318 0.349298L72.108 0.346689L72.0841 0.344432L71.1922 0.261021L71.1683 0.258835L71.1445 0.256861L70.2513 0.185578L70.2276 0.183603L70.2038 0.182123L69.3095 0.122896L69.2858 0.121345L69.262 0.120146L68.3671 0.0730467L68.3433 0.0717771L68.3196 0.071002L67.4237 0.0361002L67.4001 0.0351836L67.3764 0.0346193L66.4801 0.0118453L66.4564 0.0111401L66.4328 0.0108582L65.5363 0.000281878L65.5126 0L65.4886 0.000140939ZM100.893 11.3467L100.252 11.4851L99.649 11.7405L99.1034 12.1036L98.6343 12.5622L98.2582 13.1001L97.9881 13.6987L97.8335 14.3373L97.7996 14.9934L97.8875 15.6446L98.0945 16.2681L98.4132 16.8421L98.8324 17.3469L99.2464 17.7006L99.458 17.8545L99.4625 17.8578L99.8149 18.1189L99.8191 18.1221L100.15 18.3711L100.155 18.3755L100.467 18.6142L100.472 18.6179L100.81 18.8817L101.146 19.148L101.152 19.153L101.472 19.4108L101.481 19.4179L101.793 19.6748L102.123 19.9498L102.131 19.9564L102.442 20.2205L102.751 20.4871L102.758 20.4928L103.08 20.7758L103.4 21.0616L103.407 21.0678L103.71 21.3429L104.026 21.6343L104.033 21.6407L104.33 21.9201L104.641 22.217L104.933 22.5008L104.941 22.5085L105.255 22.819L105.257 22.8212L105.537 23.1021L105.543 23.1082L105.844 23.4162L106.131 23.7151L106.135 23.7188L106.439 24.0407L106.446 24.0479L106.726 24.3491L107.006 24.6562L107.009 24.6594L107.305 24.9896L107.591 25.3136L107.598 25.3211L107.876 25.6422L107.88 25.6466L108.15 25.9647L108.429 26.2976L108.692 26.617L108.698 26.6255L108.971 26.9638L109.244 27.307L109.501 27.637L109.506 27.6434L109.778 27.9996L109.784 28.0073L110.041 28.3489L110.046 28.3562L110.306 28.708L110.338 28.7513L110.371 28.7935L110.756 29.2833L111.132 29.7728L111.496 30.2569L111.852 30.7413L112.211 31.2415L112.561 31.7402L112.9 32.2343L113.231 32.728L113.236 32.7349L113.574 33.2511L113.903 33.7652L114.227 34.283L114.54 34.7955L114.858 35.3301L115.16 35.8494L115.462 36.3817L115.759 36.9174L116.045 37.4468L116.331 37.989L116.608 38.5291L116.793 38.8987L117.14 39.456L117.584 39.9388L118.11 40.3307L118.699 40.6176L119.331 40.79L119.984 40.8417L120.635 40.7709L121.261 40.5802L121.842 40.2759L122.356 39.8689L122.786 39.3732L123.117 38.8061L123.337 38.1873L123.439 37.5381L123.419 36.8814L123.278 36.2396L123.072 35.7345L122.878 35.3477L122.87 35.3313L122.862 35.3148L122.567 34.7401L122.558 34.7237L122.549 34.7074L122.248 34.1358L122.24 34.1195L122.231 34.1032L121.924 33.5349L121.915 33.5187L121.906 33.5024L121.593 32.9372L121.584 32.9211L121.575 32.9049L121.256 32.3431L121.247 32.327L121.238 32.3108L120.913 31.7524L120.903 31.7363L120.894 31.7203L120.563 31.1655L120.553 31.1494L120.544 31.1336L120.207 30.5822L120.197 30.5662L120.187 30.5504L119.845 30.0026L119.835 29.9866L119.825 29.9709L119.477 29.4268L119.467 29.4109L119.456 29.3953L119.102 28.8548L119.092 28.839L119.082 28.8233L118.722 28.2868L118.711 28.2711L118.701 28.2556L118.335 27.7227L118.324 27.7072L118.313 27.6917L117.942 27.1628L117.931 27.1473L117.92 27.132L117.543 26.6072L117.532 26.5917L117.521 26.5763L117.138 26.0555L117.127 26.0402L117.116 26.0249L116.727 25.5082L116.716 25.4929L116.704 25.4778L116.31 24.9654L116.299 24.9501L116.287 24.9351L115.921 24.4694L115.675 24.1355L115.665 24.1231L115.656 24.1108L115.375 23.7373L115.366 23.725L115.357 23.7127L115.073 23.3424L115.064 23.3302L115.055 23.318L114.769 22.9509L114.759 22.9388L114.75 22.9268L114.461 22.5627L114.451 22.5506L114.442 22.5388L114.15 22.1778L114.14 22.1658L114.131 22.154L113.837 21.7962L113.827 21.7843L113.817 21.7726L113.52 21.418L113.51 21.4062L113.501 21.3945L113.201 21.0429L113.191 21.0314L113.181 21.0198L112.879 20.6714L112.869 20.6598L112.859 20.6485L112.555 20.3032L112.545 20.2917L112.534 20.2805L112.228 19.9382L112.217 19.9269L112.207 19.9157L111.897 19.5765L111.887 19.5654L111.877 19.5543L111.565 19.2183L111.555 19.2073L111.544 19.1962L111.23 18.8634L111.219 18.8523L111.209 18.8415L110.892 18.5118L110.881 18.5009L110.871 18.4902L110.552 18.1635L110.541 18.1528L110.53 18.1422L110.209 17.8186L110.198 17.808L110.187 17.7975L109.863 17.4771L109.853 17.4666L109.842 17.4561L109.515 17.1388L109.504 17.1283L109.494 17.118L109.165 16.8039L109.154 16.7936L109.143 16.7834L108.812 16.4723L108.801 16.4622L108.79 16.452L108.457 16.1441L108.446 16.1341L108.435 16.1242L108.099 15.8193L108.088 15.8094L108.077 15.7995L107.739 15.4977L107.728 15.488L107.717 15.4782L107.377 15.1796L107.366 15.1698L107.354 15.1603L107.012 14.8648L107.001 14.8552L106.99 14.8456L106.645 14.5533L106.634 14.5438L106.623 14.5344L106.276 14.2451L106.265 14.2357L106.253 14.2265L105.904 13.9403L105.893 13.9311L105.882 13.9219L105.531 13.6389L105.52 13.6297L105.508 13.6207L105.155 13.3408L105.144 13.3316L105.132 13.3229L104.777 13.0459L104.766 13.0371L104.754 13.0283L104.397 12.7545L104.386 12.7457L104.374 12.737L104.015 12.4664L104.003 12.4577L103.992 12.4492L103.631 12.1816L103.619 12.1731L103.607 12.1646L103.373 11.9936L102.809 11.659L102.194 11.4351L101.547 11.3297L100.893 11.3467ZM25.9047 13.0834L25.2672 13.234L24.6688 13.5007L24.2166 13.8037L24.1871 13.8269L24.1758 13.8356L24.1649 13.8446L23.8148 14.1252L23.8037 14.1342L23.7927 14.1432L23.4447 14.4268L23.4337 14.4358L23.4228 14.4449L23.0769 14.7315L23.0659 14.7407L23.055 14.7499L22.7114 15.0395L22.7004 15.0487L22.6894 15.0581L22.3479 15.3506L22.3371 15.3599L22.3263 15.3693L21.9871 15.6649L21.9761 15.6743L21.9654 15.6838L21.6283 15.9823L21.6175 15.9919L21.6068 16.0015L21.272 16.303L21.2613 16.3126L21.2506 16.3224L20.9181 16.6267L20.9074 16.6365L20.8966 16.6464L20.5665 16.9538L20.5558 16.9637L20.5452 16.9736L20.2173 17.2839L20.2068 17.294L20.1963 17.3042L19.8707 17.6173L19.8602 17.6275L19.8497 17.6377L19.5265 17.9539L19.516 17.9641L19.5057 17.9745L19.1849 18.2936L19.1745 18.3039L19.1641 18.3144L18.8458 18.6364L18.8354 18.6469L18.8251 18.6574L18.5092 18.9825L18.4988 18.9931L18.4887 19.0038L18.1751 19.3316L18.165 19.3424L18.1548 19.3531L17.8439 19.6841L17.8336 19.695L17.8236 19.7058L17.5151 20.0397L17.5049 20.0505L17.4949 20.0615L17.189 20.3982L17.179 20.4094L17.169 20.4206L16.8657 20.7601L16.8557 20.7713L16.8459 20.7826L16.545 21.1252L16.5352 21.1365L16.5253 21.1478L16.227 21.4933L16.2173 21.5048L16.2076 21.5162L15.912 21.8647L15.9022 21.8761L15.8925 21.8877L15.5997 22.2392L15.5899 22.2507L15.5803 22.2625L15.2901 22.6168L15.2805 22.6285L15.271 22.6403L14.9834 22.9976L14.9739 23.0094L14.9645 23.0213L14.6795 23.3815L14.6702 23.3935L14.6609 23.4055L14.3788 23.7686L14.3694 23.7806L14.3601 23.7927L14.0807 24.1587L14.0715 24.1708L14.0623 24.1831L13.7856 24.5521L13.7766 24.5643L13.7675 24.5765L13.4936 24.9485L13.4846 24.9609L13.4756 24.9731L13.2046 25.3482L13.1957 25.3605L13.1868 25.3729L12.9187 25.7508L12.9097 25.7633L12.901 25.7759L12.6357 26.1566L12.6269 26.1692L12.6182 26.1819L12.3557 26.5655L12.3471 26.5782L12.3386 26.591L12.0791 26.9775L12.0704 26.9904L12.0621 27.0031L11.8055 27.3928L11.797 27.4055L11.7885 27.4185L11.535 27.811L11.5266 27.8239L11.5184 27.8368L11.3306 28.1331L11.1239 28.4156L11.1147 28.428L11.1057 28.4406L10.8331 28.8199L10.8241 28.8325L10.8154 28.845L10.5465 29.2261L10.5376 29.2388L10.529 29.2513L10.2638 29.6341L10.2552 29.6468L10.2465 29.6595L9.98529 30.0439L9.97665 30.0566L9.96808 30.0693L9.71064 30.4554L9.70221 30.4683L9.69378 30.481L9.44007 30.8687L9.43164 30.8815L9.42342 30.8945L9.17343 31.2838L9.16521 31.2966L9.15706 31.3095L8.91094 31.7003L8.90265 31.7133L8.89471 31.7263L8.65224 32.1187L8.6443 32.1317L8.63629 32.1447L8.39754 32.5387L8.38975 32.5517L8.38188 32.5648L8.147 32.9603L8.13913 32.9733L8.1314 32.9865L7.90024 33.3834L7.89251 33.3965L7.88499 33.4096L7.65749 33.8082L7.6499 33.8212L7.64252 33.8345L7.41867 34.2344L7.4113 34.2474L7.40399 34.2608L7.18379 34.6621L7.17649 34.6753L7.16932 34.6885L6.95292 35.0913L6.94582 35.1046L6.9388 35.1178L6.72591 35.522L6.71895 35.5352L6.71192 35.5486L6.50283 35.9541L6.49594 35.9673L6.48927 35.9807L6.28368 36.3875L6.27694 36.4009L6.27041 36.4143L6.06855 36.8224L6.06194 36.8358L6.05534 36.8492L5.8572 37.2586L5.85074 37.272L5.84428 37.2855L5.64965 37.6962L5.64333 37.7096L5.63722 37.7231L5.44618 38.135L5.44 38.1486L5.43381 38.162L5.38442 38.2711L5.16991 38.8919L5.07415 39.542L5.10015 40.1985L5.24706 40.8389L5.50998 41.4408L5.87955 41.9832L6.34298 42.4475L6.88434 42.8172L7.48458 43.0798L8.12297 43.2261L8.77723 43.2509L9.42482 43.1534L10.0431 42.9369L10.6108 42.6091L11.1078 42.1813L11.517 41.6684L11.7798 41.1907L11.8223 41.0969L12.0004 40.7126L12.1853 40.3223L12.1899 40.3128L12.362 39.9571L12.3638 39.9534L12.5583 39.5602L12.753 39.1749L12.756 39.169L12.9482 38.7969L12.9516 38.7901L13.143 38.4269L13.3479 38.0459L13.3528 38.0366L13.5526 37.6728L13.7644 37.2946L13.7679 37.2882L13.9759 36.9246L13.9807 36.9162L14.1879 36.5607L14.4007 36.2023L14.4058 36.1938L14.6311 35.822L14.8599 35.4519L15.0925 35.0828L15.0962 35.0769L15.3285 34.7152L15.3297 34.7133L15.5499 34.3769L15.556 34.3676L15.7991 34.0032L16.0451 33.641L16.295 33.2802L16.2991 33.2743L16.5412 32.9312L16.7981 32.5736L17.0632 32.2114L17.1328 32.1164L17.1958 32.017L17.4397 31.6322L17.6791 31.2619L17.6835 31.2551L17.914 30.9052L18.1485 30.5557L18.1515 30.5513L18.4038 30.1826L18.6537 29.8239L18.6589 29.8165L18.9049 29.4703L18.9094 29.4638L19.1532 29.1268L19.4117 28.7758L19.6708 28.43L19.677 28.4218L19.9269 28.0945L20.1918 27.7538L20.449 27.4283L20.4532 27.4232L20.7246 27.0858L20.9968 26.7535L21.2797 26.4142L21.2816 26.4119L21.5578 26.0865L21.8168 25.7864L21.8176 25.7857L22.1156 25.446L22.1175 25.4439L22.3944 25.134L22.4011 25.1266L22.6829 24.8166L22.6871 24.812L22.967 24.5092L23.261 24.1966L23.266 24.1911L23.5386 23.9061L23.5412 23.9035L23.8478 23.5878L23.8545 23.581L24.1411 23.2912L24.4448 22.989L24.4519 22.982L24.7428 22.6976L25.0513 22.401L25.0588 22.3937L25.3544 22.1142L25.653 21.8361L25.6593 21.8303L25.9836 21.5335L25.9855 21.5318L26.2935 21.2545L26.2987 21.2499L26.5924 20.9897L26.5968 20.9859L26.9099 20.713L26.9116 20.7117L27.2296 20.439L27.2371 20.4327L27.5648 20.1566L27.5732 20.1495L27.885 19.8912L28.2171 19.6204L28.223 19.6156L28.5287 19.3706L28.5353 19.3653L28.5582 19.3472L29.033 18.8948L29.416 18.3617L29.6937 17.7667L29.8567 17.1302L29.8989 16.4745L29.8192 15.8223L29.6203 15.1961L29.3091 14.618L28.8964 14.1079L28.3964 13.6834L27.8266 13.3596L27.2069 13.1474L26.5588 13.0543L25.9047 13.0834ZM125.828 58.2848L125.193 58.4467L124.599 58.724L124.067 59.107L123.615 59.5825L123.259 60.1339L123.011 60.742L122.88 61.3857L122.863 61.9311L122.889 62.5083L122.911 63.1297L122.926 63.7386L122.935 64.3471L122.937 64.9709L122.941 65.0182L122.939 65.0785L122.954 65.5248L122.965 65.9772V65.984L122.972 66.4144V66.4201L122.975 66.8349L122.974 67.2854V67.2904L122.969 67.7205V67.7242L122.962 68.1393L122.95 68.574L122.934 69.0063L122.915 69.4382L122.892 69.8704L122.865 70.3016L122.834 70.7317L122.834 70.7402L122.8 71.1613L122.799 71.168L122.763 71.5756L122.722 72.005L122.677 72.4332L122.629 72.8596L122.579 73.2636L122.578 73.2712L122.521 73.7111L122.52 73.716L122.463 74.1216L122.4 74.5473L122.334 74.9692L122.332 74.9781L122.266 75.3803L122.192 75.8034L122.115 76.2232L122.114 76.232L122.038 76.6297L121.953 77.0507L121.865 77.471L121.864 77.4772L121.778 77.875L121.683 78.294L121.681 78.3025L121.588 78.6963L121.487 79.114L121.484 79.1237L121.386 79.5151L121.277 79.9308L121.275 79.9409L121.172 80.3201L121.171 80.3258L121.054 80.7437L121.052 80.7537L120.936 81.1571L120.935 81.1587L120.818 81.5536L120.815 81.5624L120.697 81.9498L120.575 82.3397L120.573 82.3452L120.441 82.7547L120.314 83.1397L120.311 83.148L120.173 83.5555L120.17 83.5646L120.034 83.9517L120.031 83.9614L119.891 84.3524L119.889 84.3573L119.754 84.7259L119.751 84.7324L119.602 85.1309L119.455 85.5118L119.453 85.5185L119.299 85.9079L118.978 86.6959L118.651 87.465L118.309 88.234L117.953 89.0055L117.59 89.7581L117.216 90.5066L116.829 91.2535L116.624 91.6334L116.368 92.2382L116.228 92.8801L116.21 93.5369L116.313 94.1858L116.534 94.8043L116.866 95.3709L117.297 95.8656L117.812 96.2716L118.393 96.5748L119.02 96.7642L119.671 96.8338L120.323 96.7809L120.955 96.6072L121.544 96.319L122.068 95.9263L122.512 95.4424L122.806 94.9839L123.022 94.5833L123.035 94.5599L123.047 94.5365L123.459 93.7425L123.471 93.719L123.483 93.6952L123.883 92.8951L123.895 92.8711L123.906 92.847L124.294 92.0408L124.306 92.0166L124.317 91.9921L124.693 91.18L124.704 91.1553L124.715 91.1307L125.079 90.3126L125.09 90.2877L125.1 90.2626L125.451 89.4388L125.462 89.4134L125.472 89.3881L125.81 88.5587L125.818 88.5395L125.825 88.5203L125.99 88.1034L125.995 88.0906L126 88.0776L126.16 87.6595L126.165 87.6465L126.17 87.6334L126.328 87.2139L126.333 87.2009L126.338 87.1878L126.492 86.7669L126.497 86.7537L126.502 86.7406L126.653 86.3184L126.657 86.3052L126.662 86.292L126.81 85.8683L126.814 85.8552L126.819 85.8418L126.963 85.417L126.968 85.4035L126.972 85.3902L127.113 84.964L127.118 84.9506L127.122 84.9372L127.26 84.5097L127.264 84.4962L127.268 84.4827L127.403 84.0539L127.407 84.0404L127.411 84.0267L127.542 83.5968L127.546 83.5832L127.551 83.5694L127.678 83.1383L127.682 83.1244L127.686 83.1108L127.81 82.6783L127.814 82.6645L127.818 82.6508L127.939 82.2171L127.943 82.2032L127.947 82.1893L128.064 81.7544L128.068 81.7404L128.071 81.7265L128.185 81.2905L128.189 81.2765L128.192 81.2625L128.303 80.8252L128.306 80.8111L128.309 80.7972L128.416 80.3586L128.42 80.3447L128.423 80.3304L128.526 79.8909L128.53 79.8767L128.533 79.8625L128.632 79.4219L128.636 79.4075L128.639 79.3932L128.735 78.9514L128.738 78.9371L128.741 78.9228L128.833 78.4799L128.836 78.4654L128.839 78.4511L128.928 78.007L128.931 77.9927L128.934 77.9782L129.019 77.533L129.022 77.5186L129.024 77.504L129.106 77.0579L129.109 77.0433L129.111 77.0287L129.189 76.5815L129.191 76.5669L129.194 76.5522L129.268 76.104L129.27 76.0894L129.273 76.0746L129.343 75.6254L129.346 75.6106L129.348 75.5959L129.414 75.1456L129.417 75.1308L129.419 75.116L129.482 74.6647L129.484 74.6499L129.486 74.6351L129.545 74.1827L129.547 74.1679L129.549 74.153L129.604 73.6998L129.606 73.6847L129.608 73.6699L129.659 73.2156L129.661 73.2008L129.662 73.1857L129.71 72.7306L129.712 72.7155L129.713 72.7006L129.757 72.2444L129.759 72.2293L129.76 72.2143L129.8 71.7573L129.802 71.7422L129.803 71.7271L129.839 71.2692L129.84 71.2541L129.841 71.2389L129.874 70.78L129.875 70.7649L129.876 70.7498L129.904 70.2901L129.905 70.2748L129.906 70.2596L129.931 69.799L129.932 69.7838L129.932 69.7686L129.953 69.3073L129.954 69.2919L129.954 69.2766L129.971 68.8143L129.972 68.7991L129.973 68.7838L129.985 68.3206L129.986 68.3054V68.2901L129.995 67.8261V67.7954L129.999 67.3308V67.3001L130 66.8346V66.8038L129.996 66.3376V66.3067L129.989 65.8398V65.8089L129.977 65.3412V65.3257L129.977 65.3103L129.963 64.8944L129.961 64.3024V64.2639L129.952 63.6168V63.5978L129.951 63.5787L129.935 62.9319L129.935 62.9127L129.934 62.8937L129.911 62.2471L129.91 62.2282L129.91 62.2091L129.881 61.6042L129.79 60.9535L129.58 60.3311L129.259 59.7585L128.837 59.2558L128.33 58.8405L127.755 58.5266L127.131 58.3256L126.481 58.2439L125.828 58.2848ZM3.08753 60.9773L2.44774 61.1173L1.84504 61.374L1.3001 61.7385L0.832166 62.1982L0.457397 62.7369L0.18872 63.3363L0.0355516 63.9751L0 64.5196L0.00555022 64.9704L0.00576142 64.9955L0.00646364 65.0208L0.0300716 65.9167L0.0307738 65.9417L0.0317575 65.9669L0.0680826 66.8627L0.0690663 66.8876L0.0704712 66.9125L0.119443 67.8079L0.120848 67.8326L0.122464 67.8575L0.184082 68.7523L0.185699 68.777L0.187806 68.8018L0.261861 69.6958L0.263969 69.7204L0.266217 69.745L0.352848 70.6382L0.355308 70.6625L0.357908 70.6869L0.456975 71.5791L0.459575 71.6033L0.462596 71.6276L0.574029 72.5185L0.57705 72.5427L0.580353 72.5669L0.704011 73.4564L0.707454 73.4803L0.710967 73.5045L0.846851 74.3923L0.850574 74.4163L0.854509 74.44L1.00262 75.3262L1.00662 75.3501L1.01084 75.3738L1.1711 76.2579L1.17532 76.2817L1.17989 76.3053L1.35209 77.1874L1.3568 77.2109L1.36172 77.2345L1.54587 78.1143L1.55079 78.1378L1.55606 78.1612L1.75209 79.0385L1.75736 79.0619L1.76298 79.0852L1.97102 79.96L1.9765 79.9832L1.98226 80.0064L2.20211 80.8783L2.20801 80.9013L2.21419 80.9244L2.4457 81.7934L2.45188 81.8164L2.45828 81.8394L2.70159 82.7053L2.70805 82.7282L2.7148 82.751L2.96977 83.6136L2.97645 83.6363L2.98348 83.659L3.24997 84.5182L3.257 84.5407L3.26438 84.5633L3.5424 85.4188L3.54971 85.4413L3.55736 85.4639L3.84691 86.3156L3.8545 86.3381L3.86244 86.3604L4.16336 87.2081L4.17116 87.2304L4.17945 87.2526L4.49176 88.0962L4.49998 88.1184L4.50848 88.1405L4.8321 88.9797L4.84053 89.0019L4.84939 89.0239L5.18404 89.8586L5.19296 89.8807L5.20209 89.9025L5.54799 90.7327L5.55712 90.7546L5.56668 90.7764L5.9236 91.6016L5.93308 91.6234L5.94278 91.6451L6.31081 92.4654L6.32064 92.4871L6.33062 92.5087L6.7096 93.3237L6.71979 93.3453L6.73005 93.367L7.12007 94.1765L7.13054 94.198L7.14122 94.2195L7.26698 94.4721L7.6133 95.03L8.05664 95.5134L8.58184 95.9061L9.17041 96.1941L9.80205 96.3674L10.4547 96.4202L11.1059 96.3504L11.7327 96.1606L12.3136 95.8574L12.8283 95.4511L13.2591 94.9561L13.5906 94.3895L13.8118 93.771L13.9146 93.1219L13.8956 92.4651L13.7557 91.8232L13.5508 91.3178L13.4377 91.0907L13.0657 90.3189L12.7098 89.5533L12.3583 88.7702L12.0225 87.9943L11.6936 87.2052L11.3774 86.4165L11.0695 85.618L10.7744 84.8209L10.4901 84.0197L10.2155 83.2122L9.95192 82.401L9.69814 81.583L9.45813 80.771L9.22838 79.9538L9.0072 79.124L8.79993 78.3015L8.60432 77.4789L8.41715 76.6424L8.24178 75.8041L8.07997 74.9755L7.9275 74.1339L7.78796 73.2993L7.65911 72.4568L7.54304 71.6218L7.43736 70.7765L7.34364 69.9308L7.26157 69.0849L7.19159 68.2398L7.13342 67.3938L7.08711 66.5483L7.05297 65.7029L7.03077 64.8588L7.0255 64.4339L6.95664 63.7805L6.76806 63.1513L6.46629 62.568L6.06208 62.0512L5.56914 61.6185L5.00487 61.2852L4.38869 61.0628L3.74208 60.9589L3.08753 60.9773ZM102.965 109.203L102.33 109.364L101.736 109.64L101.289 109.95L101.229 109.999L100.566 110.525L99.8947 111.042L99.2111 111.555L98.521 112.058L97.8309 112.547L97.1321 113.028L96.4295 113.498L95.7139 113.963L94.9926 114.418L94.2653 114.863L93.5399 115.293L92.8014 115.717L92.0623 116.129L91.3137 116.533L90.564 116.924L89.7983 117.31L89.0437 117.678L88.2769 118.039L87.5025 118.39L86.7312 118.727L85.9492 119.055L85.1588 119.375L84.3816 119.676L83.5811 119.973L82.7895 120.255L81.9949 120.525L81.1887 120.786L80.386 121.033L79.5754 121.269L78.7625 121.494L77.9449 121.707L77.1367 121.905L76.5202 122.046L75.8984 122.252L75.3251 122.57L74.8206 122.989L74.4024 123.494L74.085 124.069L73.8794 124.693L73.7927 125.344L73.828 126L73.984 126.639L74.2555 127.237L74.6327 127.774L75.1027 128.231L75.6491 128.593L76.2529 128.847L76.8934 128.985L77.5481 129L78.0859 128.92L78.7252 128.773L78.7505 128.767L78.7756 128.761L79.6423 128.549L79.6674 128.543L79.6923 128.536L80.556 128.311L80.5807 128.305L80.6054 128.298L81.4658 128.06L81.4904 128.053L81.5148 128.046L82.372 127.796L82.3962 127.789L82.4205 127.781L83.274 127.519L83.2981 127.511L83.3221 127.503L84.172 127.228L84.1959 127.221L84.2197 127.213L85.0657 126.925L85.0894 126.917L85.1129 126.909L85.955 126.61L85.9785 126.601L86.0017 126.593L86.8398 126.281L86.863 126.273L86.8861 126.264L87.7199 125.94L87.7429 125.931L87.7658 125.922L88.5952 125.587L88.6178 125.578L88.6405 125.569L89.4653 125.222L89.488 125.212L89.5104 125.203L90.3306 124.844L90.3528 124.834L90.3751 124.824L91.1904 124.455L91.2125 124.445L91.2345 124.434L92.045 124.053L92.0667 124.043L92.0886 124.032L92.8938 123.64L92.9156 123.629L92.937 123.619L93.7371 123.215L93.7585 123.204L93.7799 123.193L94.5745 122.778L94.5958 122.767L94.6168 122.756L95.4059 122.331L95.4269 122.319L95.448 122.308L96.2312 121.871L96.2521 121.86L96.2728 121.848L97.0503 121.401L97.0709 121.389L97.0915 121.377L97.8629 120.919L97.8835 120.907L97.9038 120.894L98.669 120.426L98.6894 120.414L98.7094 120.401L99.4685 119.923L99.4886 119.91L99.5085 119.897L100.261 119.408L100.281 119.395L100.301 119.382L101.047 118.883L101.066 118.87L101.086 118.857L101.825 118.347L101.845 118.334L101.864 118.32L102.597 117.801L102.616 117.788L102.635 117.774L103.36 117.245L103.38 117.231L103.398 117.217L104.117 116.678L104.136 116.664L104.154 116.649L104.865 116.101L104.884 116.087L104.903 116.072L105.606 115.514L105.625 115.499L105.643 115.484L105.719 115.423L106.186 114.963L106.561 114.424L106.829 113.825L106.981 113.186L107.013 112.529L106.923 111.878L106.714 111.256L106.394 110.682L105.973 110.179L105.466 109.763L104.892 109.448L104.269 109.246L103.619 109.163L102.965 109.203ZM25.0851 109.425L24.4642 109.634L23.8926 109.954L23.3904 110.376L22.9747 110.884L22.6602 111.46L22.4576 112.085L22.3742 112.737L22.4128 113.393L22.5721 114.03L22.8464 114.627L23.2263 115.162L23.6124 115.546L23.8014 115.707L23.8222 115.725L23.8433 115.742L24.5332 116.311L24.5545 116.329L24.5759 116.346L25.2748 116.904L25.2911 116.917L25.3074 116.93L25.6602 117.205L25.6712 117.214L25.6822 117.222L26.0373 117.495L26.0483 117.503L26.0594 117.511L26.4168 117.781L26.4279 117.789L26.4391 117.798L26.7987 118.065L26.8099 118.073L26.8213 118.081L27.183 118.345L27.1944 118.354L27.2058 118.362L27.5699 118.623L27.5813 118.631L27.5928 118.64L27.9589 118.898L27.9706 118.906L27.9821 118.914L28.3506 119.17L28.3622 119.178L28.3739 119.186L28.7446 119.438L28.7563 119.446L28.7681 119.454L29.1409 119.704L29.1527 119.712L29.1646 119.72L29.5395 119.967L29.5515 119.975L29.5635 119.982L29.9406 120.226L29.9527 120.234L29.9648 120.242L30.3441 120.483L30.3562 120.49L30.3684 120.498L30.7499 120.736L30.7621 120.743L30.7744 120.751L31.158 120.986L31.1703 120.993L31.1827 121.001L31.5684 121.233L31.5809 121.24L31.5934 121.248L31.9813 121.477L31.9937 121.484L32.0064 121.491L32.3963 121.717L32.409 121.724L32.4216 121.731L32.8138 121.954L32.8264 121.961L32.8392 121.968L33.2334 122.188L33.2462 122.195L33.2591 122.202L33.6554 122.418L33.6683 122.426L33.6812 122.432L34.0797 122.646L34.0926 122.653L34.1056 122.659L34.5062 122.87L34.5192 122.876L34.5324 122.883L34.935 123.09L34.9481 123.097L34.9615 123.103L35.3661 123.307L35.3792 123.314L35.3926 123.32L35.7993 123.521L35.8127 123.527L35.826 123.534L36.2349 123.731L36.2482 123.737L36.2616 123.744L36.6726 123.937L36.6861 123.944L36.6996 123.95L37.1124 124.14L37.126 124.147L37.1397 124.153L37.5546 124.34L37.5683 124.346L37.582 124.352L37.999 124.536L38.0127 124.542L38.0265 124.548L38.4455 124.728L38.4593 124.735L38.4732 124.74L38.8942 124.917L38.9081 124.923L38.9221 124.929L39.345 125.102L39.359 125.108L39.373 125.114L39.798 125.284L39.8121 125.29L39.8262 125.295L40.2531 125.462L40.2673 125.467L40.2814 125.473L40.7104 125.636L40.7245 125.641L40.7388 125.647L41.1698 125.806L41.184 125.812L41.1984 125.817L41.6312 125.973L41.6456 125.978L41.6599 125.983L42.0949 126.136L42.1092 126.141L42.1237 126.146L42.5605 126.295L42.5749 126.3L42.5894 126.305L43.0284 126.45L43.0428 126.455L43.0573 126.46L43.498 126.602L43.5126 126.606L43.5273 126.611L43.97 126.749L43.9845 126.754L43.9992 126.758L44.4438 126.893L44.4585 126.897L44.4732 126.902L44.9197 127.032L44.9345 127.037L44.9492 127.041L45.3977 127.168L45.4125 127.172L45.4273 127.176L45.7661 127.269L46.0971 127.384L46.1117 127.389L46.1262 127.394L46.5677 127.543L46.5823 127.548L46.597 127.553L47.0388 127.697L47.0535 127.702L47.0681 127.707L47.5105 127.847L47.5252 127.852L47.5397 127.856L47.9826 127.993L47.9974 127.997L48.0119 128.002L48.4554 128.134L48.47 128.138L48.4846 128.143L48.9284 128.271L48.9432 128.275L48.9578 128.279L49.402 128.403L49.4167 128.408L49.4315 128.412L49.8761 128.532L49.8908 128.536L49.9055 128.539L50.3505 128.656L50.3652 128.659L50.3799 128.663L50.8253 128.775L50.8401 128.779L50.8547 128.782L51.3004 128.891L51.3152 128.894L51.3299 128.898L51.3452 128.901L51.994 128.99L52.648 128.956L53.2843 128.801L53.8808 128.53L54.417 128.153L54.8741 127.682L55.2363 127.135L55.4908 126.529L55.629 125.887L55.646 125.23L55.5413 124.581L55.3183 123.964L54.985 123.398L54.5528 122.904L54.037 122.5L53.4552 122.198L52.9507 122.038L52.951 122.037L52.9367 122.034L52.5154 121.931L52.0988 121.826L52.0894 121.824L51.703 121.723L51.6975 121.722L51.2878 121.611L51.2817 121.61L50.8729 121.495L50.8666 121.494L50.4486 121.373L50.025 121.246L49.6306 121.125L49.6217 121.122L49.2041 120.99L48.7922 120.855L48.3805 120.716L47.9512 120.567L47.8416 120.529L47.7299 120.498L47.2951 120.379L46.8727 120.259L46.4517 120.136L46.4436 120.134L46.047 120.013L45.634 119.884L45.2185 119.751L44.8049 119.614L44.3878 119.471L44.3859 119.47L43.996 119.333L43.587 119.186L43.1805 119.035L43.1731 119.032L42.7885 118.886L42.4019 118.735L42.3979 118.734L42.0049 118.576L41.9962 118.573L41.5964 118.409L41.1977 118.241L41.1887 118.237L40.8144 118.076L40.4203 117.902L40.0343 117.728L39.6428 117.548L39.6346 117.544L39.2664 117.37L38.8849 117.186L38.505 116.999L38.127 116.809L37.7606 116.621L37.7577 116.619L37.3699 116.416L37.0133 116.225L37.0038 116.22L36.6426 116.023L36.6391 116.021L36.2571 115.808L36.2485 115.803L35.8961 115.603L35.5422 115.398L35.5363 115.395L35.1791 115.184L35.1712 115.179L34.8039 114.959L34.459 114.747L34.4497 114.742L34.0897 114.517L33.7467 114.299L33.7398 114.295L33.3719 114.057L33.3696 114.056L33.0246 113.828L33.0185 113.824L32.6795 113.597L32.3457 113.37L32.3398 113.365L31.9903 113.123L31.6572 112.888L31.6508 112.883L31.3017 112.633L31.2933 112.627L30.9656 112.388L30.6396 112.146L30.6343 112.142L30.2912 111.883L30.2822 111.876L29.9713 111.638L29.9635 111.632L29.6306 111.372L28.976 110.849L28.32 110.308L28.1579 110.17L27.6213 109.793L27.0244 109.523L26.3878 109.369L25.7339 109.336L25.0851 109.425Z" fill="#5B5B5B"/>
</svg>
